<svg width="41" height="41" fill="none" xmlns="http://www.w3.org/2000/svg"><path d="M38.333.65H2.867A2.217 2.217 0 0 0 .65 2.867v35.466a2.217 2.217 0 0 0 2.217 2.217h35.466a2.217 2.217 0 0 0 2.217-2.217V2.867A2.217 2.217 0 0 0 38.333.65ZM12.485 34.647H6.562V15.606h5.923v19.04ZM9.523 13.006a3.431 3.431 0 1 1 0-6.863 3.431 3.431 0 0 1 0 6.863Zm25.126 21.64h-5.916v-9.258c0-2.208-.04-5.047-3.077-5.047-3.08 0-3.549 2.407-3.549 4.892v9.416h-5.912V15.608h5.675v2.602h.082c.787-1.496 2.72-3.074 5.595-3.074 5.994 0 7.1 3.941 7.1 9.07v10.44h.002Z" fill="#CCC"/></svg>